#!OML:ASF F:\VICON\USERDATA\INSTALL\rory3\rory3.ASF
:FULLY-SPECIFIED
:DEGREES
308
root -10.9628 18.0389 9.52169 -2.72239 -84.6955 -0.394388
lowerback 11.0772 1.45275 0.732166
upperback 0.979322 2.04717 1.26947
thorax -5.20834 0.987028 0.601056
lowerneck -19.0695 -7.59716 -12.8716
upperneck 28.1062 -10.6058 10.4591
head 14.0854 -4.82577 4.39568
rclavicle -2.73329e-016 -1.98785e-015
rhumerus -32.2391 -16.1897 -79.213
rradius 26.6124
rwrist 9.90377
rhand -16.0289 7.09716
rfingers 7.12502
rthumb 10.1723 -22.6369
lclavicle -2.73329e-016 -1.98785e-015
lhumerus -35.4005 -0.456078 86.1511
lradius 35.2518
lwrist -4.98998
lhand -16.6606 24.3804
lfingers 7.12502
lthumb 9.56282 54.1434
rfemur -3.40975 -3.70259 28.0632
rtibia 19.9043
rfoot -10.4127 1.7379
rtoes 21.1526
lfemur -10.0272 0.740431 -16.6293
ltibia 60.3108
lfoot 7.20896 -9.61395
ltoes -6.18125
309
root -11.0823 18.0343 9.53514 -2.07947 -85.0503 -0.918196
lowerback 10.9607 1.55098 0.790244
upperback 0.965716 2.18154 1.21997
thorax -5.15441 1.05218 0.498963
lowerneck -19.1573 -7.60733 -12.8969
upperneck 28.182 -10.6251 10.4998
head 14.1451 -4.82955 4.41358
rclavicle -2.60656e-014 -1.03368e-014
rhumerus -31.7732 -16.4102 -79.3065
rradius 26.6827
rwrist 10.0741
rhand -16.0814 7.30069
rfingers 7.12502
rthumb 10.1216 -22.4359
lclavicle -2.60656e-014 -1.03368e-014
lhumerus -35.5115 0.140368 86.0405
lradius 35.0082
lwrist -5.03039
lhand -19.0391 24.9741
lfingers 7.12502
lthumb 7.26746 54.8293
rfemur -3.10581 -3.6063 28.0808
rtibia 19.9634
rfoot -10.7828 2.02167
rtoes 21.7766
lfemur -11.0608 0.801859 -16.5154
ltibia 60.361
lfoot 5.91931 -8.97225
ltoes -7.5091
310
root -11.2037 18.0362 9.54975 1.27988 -85.4311 -4.1357
lowerback 10.8318 1.6154 1.1207
upperback 0.916576 2.30469 1.1779
thorax -5.11974 1.10593 0.253658
lowerneck -19.181 -7.57798 -12.9066
upperneck 28.2451 -10.6406 10.6523
head 14.1921 -4.81993 4.47713
rclavicle -3.23025e-015 2.3059e-014
rhumerus -31.38 -16.4051 -79.5702
rradius 26.8362
rwrist 10.0345
rhand -15.9537 7.29382
rfingers 7.12502
rthumb 10.2448 -22.4367
lclavicle -3.23025e-015 2.3059e-014
lhumerus -35.709 0.540524 85.9407
lradius 34.8207
lwrist -4.64562
lhand -6.83433 17.5235
lfingers 7.12502
lthumb 19.0302 46.6125
rfemur -2.7978 -3.19634 28.2801
rtibia 20.0427
rfoot -10.9457 2.36979
rtoes 22.1081
lfemur -12.1089 0.868866 -16.1973
ltibia 60.2882
lfoot 4.6789 -8.46799
ltoes -7.58168
311
root -11.3172 18.0374 9.56216 5.15124 -85.6418 -7.90749
lowerback 10.8832 1.63034 1.40361
upperback 0.843603 2.3629 1.2002
thorax -5.21447 1.12778 0.106608
lowerneck -19.094 -7.5732 -12.966
upperneck 28.1938 -10.6412 10.7156
head 14.1598 -4.82214 4.51352
rclavicle 1.4238e-014 -4.77083e-015
rhumerus -31.012 -16.0546 -79.7923
rradius 27.023
rwrist 9.88433
rhand -15.7901 7.54908
rfingers 7.12502
rthumb 10.4026 -22.1736
lclavicle 1.4238e-014 -4.77083e-015
lhumerus -35.8788 0.828392 85.9643
lradius 34.5655
lwrist -4.06105
lhand -14.1498 22.9256
lfingers 7.12502
lthumb 11.9847 52.5625
rfemur -2.52006 -2.59492 28.5672
rtibia 20.2343
rfoot -11.1334 2.29869
rtoes 22.2678
lfemur -13.1651 0.892014 -15.7957
ltibia 60.1128
lfoot 3.7303 -8.02835
ltoes -3.83835
312
root -11.4322 18.0166 9.58023 6.69192 -85.896 -9.407
lowerback 10.9393 1.69677 1.46257
upperback 0.801672 2.46157 1.21359
thorax -5.28736 1.17448 0.070117
lowerneck -19.0056 -7.56464 -13.0723
upperneck 28.1837 -10.6207 10.7636
head 14.144 -4.82265 4.55719
rclavicle -6.31141e-015 -3.18055e-015
rhumerus -30.6384 -15.7317 -79.9044
rradius 27.1923
rwrist 9.94694
rhand -15.6546 7.70459
rfingers 7.12502
rthumb 10.5334 -22.0115
lclavicle -6.31141e-015 -3.18055e-015
lhumerus -35.9976 1.04717 86.0459
lradius 34.2235
lwrist -3.59586
lhand -16.034 24.7966
lfingers 7.12502
lthumb 10.1673 54.5309
rfemur -2.32487 -2.7665 28.669
rtibia 20.5039
rfoot -11.7022 2.29006
rtoes 21.722
lfemur -14.1226 0.901832 -15.6376
ltibia 59.8299
lfoot 2.70994 -7.18503
ltoes -3.97575
313
root -11.5485 17.9949 9.60215 7.03416 -86.3157 -9.62342
lowerback 10.8443 1.85174 1.48527
upperback 0.791421 2.66487 1.13067
thorax -5.23856 1.27417 -0.0569109
lowerneck -19.0862 -7.57236 -12.9888
upperneck 28.2613 -10.6457 10.72
head 14.1901 -4.82761 4.52066
rclavicle 1.7667e-014 -4.37326e-015
rhumerus -30.272 -15.4668 -80.1341
rradius 27.5024
rwrist 9.70966
rhand -15.7457 7.58527
rfingers 7.12502
rthumb 10.4454 -22.1352
lclavicle 1.7667e-014 -4.37326e-015
lhumerus -36.048 1.23335 86.0088
lradius 33.9351
lwrist -3.39919
lhand -16.901 25.143
lfingers 7.12502
lthumb 9.33083 54.9165
rfemur -2.20996 -3.01114 28.5872
rtibia 20.7655
rfoot -12.2387 2.52435
rtoes 20.6186
lfemur -15.0462 0.871585 -15.692
ltibia 59.3745
lfoot 1.40764 -6.16276
ltoes -4.31366
